<svg viewBox="-591.5 -640 1183 1280" width="1183" height="1280" style="background-color: rgb(255, 255, 255);" xmlns="http://www.w3.org/2000/svg"><path d="M-61.05330162031628,-54.686578906218834L-75.39158652254737,-66.11540745415888M-75.39158652254737,-134.11115081756802L-75.39158652254737,-66.11540745415888M-75.39158652254737,-66.11540745415888L-142.26495673083608,-41.72900433737404M-61.05330162031628,-122.68232226962796L-61.05330162031628,-54.686578906218834M-61.05330162031628,-54.686578906218834L-127.92667182860497,-30.30017578943398M-66.97623075532462,-75.80081398787537L-81.31451565755573,-87.22964253581543M-81.31451565755573,-93.11546966279747L-81.31451565755573,-87.22964253581543M-81.31451565755573,-87.22964253581543L-87.10318825638299,-85.11871402920052" style="fill:none;stroke:rgb(0,0,0);stroke-width:1;stroke-linecap:round"></path><path d="M-142.26495673083605,-41.72900433737405L-75.39158652254737,-66.1154074541589L-61.05330162031628,-54.68657890621884zM-61.05330162031628,-54.68657890621884L-75.39158652254737,-66.1154074541589L-75.39158652254737,-134.11115081756802z" style="fill:rgb(238,238,238); fill-opacity: 0.26"></path><path d="M-87.10318825638299,-91.00454115618255L-87.10318825638299,-85.11871402920052M-87.10318825638299,-85.11871402920052L-72.7649033541519,-73.68988548126048" style="fill:none;stroke:rgb(0,0,0);stroke-width:1;stroke-linecap:round"></path><path d="M-81.3145156575557,-87.22964253581543L-87.10318825638299,-85.11871402920052L-87.10318825638299,-91.00454115618255zM-81.3145156575557,-93.11546966279747L-81.3145156575557,-87.22964253581543L-87.10318825638299,-91.00454115618255z" style="fill:rgb(153,221,255); fill-opacity: 0.4"></path><path d="M-66.97623075532462,-81.68664111485741L-81.31451565755573,-93.11546966279747M-81.31451565755573,-93.11546966279747L-87.10318825638299,-91.00454115618255" style="fill:none;stroke:rgb(0,0,0);stroke-width:1;stroke-linecap:round"></path><path d="M-87.10318825638299,-85.11871402920052L-81.3145156575557,-87.22964253581543L-66.97623075532462,-75.80081398787539z" style="fill:rgb(153,221,255); fill-opacity: 0.4"></path><path d="M-87.10318825638299,-91.00454115618255L-72.7649033541519,-79.57571260824251" style="fill:none;stroke:rgb(0,0,0);stroke-width:1;stroke-linecap:round"></path><path d="M-66.97623075532462,-75.80081398787539L-81.3145156575557,-87.22964253581543L-81.3145156575557,-93.11546966279747zM-87.10318825638299,-91.00454115618255L-87.10318825638299,-85.11871402920052L-72.7649033541519,-79.57571260824251zM-87.10318825638299,-91.00454115618255L-72.7649033541519,-79.57571260824251L-81.3145156575557,-93.11546966279747zM-72.7649033541519,-73.68988548126048L-87.10318825638299,-85.11871402920052L-66.97623075532462,-75.80081398787539zM-66.97623075532462,-81.68664111485741L-66.97623075532462,-75.80081398787539L-81.3145156575557,-93.11546966279747zM-87.10318825638299,-85.11871402920052L-72.7649033541519,-73.68988548126048L-72.7649033541519,-79.57571260824251zM-72.7649033541519,-79.57571260824251L-66.97623075532462,-81.68664111485741L-81.3145156575557,-93.11546966279747z" style="fill:rgb(153,221,255); fill-opacity: 0.4"></path><path d="M-66.9762320254897,-81.68664167769741L-66.9762320254897,-75.80081408295187M-66.9762320254897,-75.80081408295187L-72.76490462431696,-73.68988557633698M-66.9762320254897,-75.80081408295187L-44.22648989459045,-56.86003765184452M-66.97623075532462,-81.68664111485741L-66.97623075532462,-75.80081398787537M-66.97623075532462,-75.80081398787537L-72.7649033541519,-73.68988548126048" style="fill:none;stroke:rgb(0,0,0);stroke-width:1;stroke-linecap:round"></path><path d="M-127.92667182860495,-30.300175789433993L-142.26495673083605,-41.72900433737405L-61.05330162031628,-54.68657890621884z" style="fill:rgb(238,238,238); fill-opacity: 0.26"></path><path d="M-142.26495673083608,-109.7247477007832L-142.26495673083608,-41.72900433737404M-142.26495673083608,-41.72900433737404L-127.92667182860497,-30.30017578943398" style="fill:none;stroke:rgb(0,0,0);stroke-width:1;stroke-linecap:round"></path><path d="M-66.97623088475463,-81.68664121802409L-66.97623088475463,-75.80081409104207L-72.7649034835819,-73.68988558442717z" style="fill:rgb(255,187,187); fill-opacity: 0.4"></path><path d="M-72.7649033541519,-73.68988548126048L-66.97623075532462,-75.80081398787539L-66.97623075532462,-81.68664111485741z" style="fill:rgb(153,221,255); fill-opacity: 0.4"></path><path d="M-72.76490462431696,-73.68988557633698L-72.76490462431696,-79.57571317108253M-72.76490462431696,-73.68988557633698L-44.22648989459045,-56.86003765184452M-72.7649033541519,-79.57571260824251L-72.7649033541519,-73.68988548126048M-66.9762320254897,-81.68664167769741L-72.76490462431696,-79.57571317108253M-66.9762320254897,-81.68664167769741L-44.22648989459045,-56.86003765184452M-66.97623075532462,-81.68664111485741L-72.7649033541519,-79.57571260824251" style="fill:none;stroke:rgb(0,0,0);stroke-width:1;stroke-linecap:round"></path><path d="M-75.39158652254737,-66.1154074541589L-142.26495673083605,-41.72900433737405L-142.26495673083605,-109.7247477007832z" style="fill:rgb(238,238,238); fill-opacity: 0.26"></path><path d="M-66.97623088475463,-81.68664121802409L-72.7649034835819,-73.68988558442717L-72.7649034835819,-79.5757127114092z" style="fill:rgb(255,187,187); fill-opacity: 0.4"></path><path d="M-72.7649033541519,-79.57571260824251L-72.7649033541519,-73.68988548126048L-66.97623075532462,-81.68664111485741z" style="fill:rgb(153,221,255); fill-opacity: 0.4"></path><path d="M-61.05330162031628,-122.68232226962797L-61.05330162031628,-54.68657890621884L-75.39158652254737,-134.11115081756802zM-75.39158652254737,-134.11115081756802L-75.39158652254737,-66.1154074541589L-142.26495673083605,-109.7247477007832z" style="fill:rgb(238,238,238); fill-opacity: 0.26"></path><path d="M-72.76490462431696,-79.57571317108253L-44.22648989459045,-56.86003765184452M-61.05330162031628,-122.68232226962796L-75.39158652254737,-134.11115081756802M-75.39158652254737,-134.11115081756802L-142.26495673083608,-109.7247477007832" style="fill:none;stroke:rgb(0,0,0);stroke-width:1;stroke-linecap:round"></path><path d="M-127.92667182860495,-30.300175789433993L-61.05330162031628,-54.68657890621884L-61.05330162031628,-122.68232226962797z" style="fill:rgb(238,238,238); fill-opacity: 0.26"></path><path d="M-72.7649034835819,-73.68988558442717L-66.97623088475463,-75.80081409104207L-44.226488834675536,-56.86003700227761zM-66.97623088475463,-75.80081409104207L-66.97623088475463,-81.68664121802409L-44.226488834675536,-56.86003700227761z" style="fill:rgb(255,187,187); fill-opacity: 0.4"></path><path d="M0.6123836763174437,-5.443536122504015L-35.573418009833276,-34.2866875984818M-35.573418009833276,-101.01622132564607L-35.573418009833276,-34.2866875984818M-35.573418009833276,-34.2866875984818L-101.20147929763044,-10.35440553534576" style="fill:none;stroke:rgb(0,0,0);stroke-width:1;stroke-linecap:round"></path><path d="M-72.7649034835819,-79.5757127114092L-72.7649034835819,-73.68988558442717L-44.226488834675536,-56.86003700227761zM-66.97623088475463,-81.68664121802409L-72.7649034835819,-79.5757127114092L-44.226488834675536,-56.86003700227761z" style="fill:rgb(255,187,187); fill-opacity: 0.4"></path><path d="M-127.92667182860497,-98.29591915284313L-127.92667182860497,-30.30017578943398M-61.05330162031628,-122.68232226962796L-127.92667182860497,-98.29591915284313" style="fill:none;stroke:rgb(0,0,0);stroke-width:1;stroke-linecap:round"></path><path d="M-142.26495673083605,-41.72900433737405L-127.92667182860495,-30.300175789433993L-127.92667182860495,-98.29591915284314zM-127.92667182860495,-98.29591915284314L-61.05330162031628,-122.68232226962797L-75.39158652254737,-134.11115081756802zM-127.92667182860495,-98.29591915284314L-127.92667182860495,-30.300175789433993L-61.05330162031628,-122.68232226962797zM-142.26495673083605,-109.7247477007832L-142.26495673083605,-41.72900433737405L-127.92667182860495,-98.29591915284314zM-142.26495673083605,-109.7247477007832L-127.92667182860495,-98.29591915284314L-75.39158652254737,-134.11115081756802z" style="fill:rgb(238,238,238); fill-opacity: 0.26"></path><path d="M-36.030654744648885,1.3173099418373166L-72.21645643079961,-27.52584153414047M-72.21645643079961,-33.411668661122505L-72.21645643079961,-27.52584153414047M-72.21645643079961,-27.52584153414047L-78.00512902962687,-25.41491302752557" style="fill:none;stroke:rgb(0,0,0);stroke-width:1;stroke-linecap:round"></path><path d="M-101.20147929763043,-10.354405535345752L-35.57341800983328,-34.28668759848179L0.6123836763174401,-5.443536122504006z" style="fill:rgb(238,238,238); fill-opacity: 0.26"></path><path d="M-78.00512902962687,-31.3007401545076L-78.00512902962687,-25.41491302752557M-78.00512902962687,-25.41491302752557L-41.819327343476154,3.4282384484522184" style="fill:none;stroke:rgb(0,0,0);stroke-width:1;stroke-linecap:round"></path><path d="M-72.21645643079961,-27.52584153414047L-78.00512902962687,-25.41491302752557L-78.00512902962687,-31.300740154507597zM-72.21645643079961,-33.4116686611225L-72.21645643079961,-27.52584153414047L-78.00512902962687,-31.300740154507597z" style="fill:rgb(153,221,255); fill-opacity: 0.4"></path><path d="M-36.030654744648885,-4.568517185144717L-72.21645643079961,-33.411668661122505M-72.21645643079961,-33.411668661122505L-78.00512902962687,-31.3007401545076" style="fill:none;stroke:rgb(0,0,0);stroke-width:1;stroke-linecap:round"></path><path d="M0.6123836763174401,-5.443536122504006L-35.57341800983328,-34.28668759848179L-35.57341800983328,-101.01622132564606z" style="fill:rgb(238,238,238); fill-opacity: 0.26"></path><path d="M-142.26495673083608,-109.7247477007832L-127.92667182860497,-98.29591915284313M-78.00512902962687,-31.3007401545076L-41.819327343476154,-2.4575886785298158M-101.20147929763044,-77.08393926251003L-101.20147929763044,-10.35440553534576M-101.20147929763044,-10.35440553534576L-65.0156776114797,18.488745940632022" style="fill:none;stroke:rgb(0,0,0);stroke-width:1;stroke-linecap:round"></path><path d="M-35.57341800983328,-34.28668759848179L-101.20147929763043,-10.354405535345752L-101.20147929763043,-77.08393926251003zM-35.57341800983328,-101.01622132564606L-35.57341800983328,-34.28668759848179L-101.20147929763043,-77.08393926251003z" style="fill:rgb(238,238,238); fill-opacity: 0.26"></path><path d="M-78.00512902962687,-25.41491302752557L-72.21645643079961,-27.52584153414047L-36.030654744648885,1.3173099418373182zM-36.030654744648885,1.3173099418373182L-72.21645643079961,-27.52584153414047L-72.21645643079961,-33.4116686611225z" style="fill:rgb(153,221,255); fill-opacity: 0.4"></path><path d="M0.6123836763174437,-72.17306984966828L-35.573418009833276,-101.01622132564607M-35.573418009833276,-101.01622132564607L-101.20147929763044,-77.08393926251003M0.6123836763174437,-72.17306984966828L0.6123836763174437,-5.443536122504015M0.6123836763174437,-5.443536122504015L-65.0156776114797,18.488745940632022" style="fill:none;stroke:rgb(0,0,0);stroke-width:1;stroke-linecap:round"></path><path d="M-78.00512902962687,-31.300740154507597L-78.00512902962687,-25.41491302752557L-41.819327343476154,-2.457588678529814zM-78.00512902962687,-31.300740154507597L-41.819327343476154,-2.457588678529814L-72.21645643079961,-33.4116686611225z" style="fill:rgb(153,221,255); fill-opacity: 0.4"></path><path d="M-65.01567761147972,18.488745940632036L-101.20147929763043,-10.354405535345752L0.6123836763174401,-5.443536122504006z" style="fill:rgb(238,238,238); fill-opacity: 0.26"></path><path d="M-41.819327343476154,3.428238448452218L-78.00512902962687,-25.41491302752557L-36.030654744648885,1.3173099418373182zM-36.03065474464889,-4.568517185144713L-36.030654744648885,1.3173099418373182L-72.21645643079961,-33.4116686611225z" style="fill:rgb(153,221,255); fill-opacity: 0.4"></path><path d="M0.6123836763174401,-72.17306984966828L0.6123836763174401,-5.443536122504006L-35.57341800983328,-101.01622132564606z" style="fill:rgb(238,238,238); fill-opacity: 0.26"></path><path d="M-78.00512902962687,-25.41491302752557L-41.819327343476154,3.428238448452218L-41.819327343476154,-2.457588678529814zM-41.819327343476154,-2.457588678529814L-36.03065474464889,-4.568517185144713L-72.21645643079961,-33.4116686611225z" style="fill:rgb(153,221,255); fill-opacity: 0.4"></path><path d="M-36.03065549437064,-4.568516903070278L-36.03065549437064,1.3173102239117576M-36.03065549437064,1.3173102239117576L-41.81932832321909,3.4282388144074263M-36.03065549437064,1.3173102239117576L-11.169393041301038,13.776327915076719M-36.030654744648885,-4.568517185144717L-36.030654744648885,1.3173099418373166M-36.030654744648885,1.3173099418373166L-41.819327343476154,3.4282384484522184" style="fill:none;stroke:rgb(0,0,0);stroke-width:1;stroke-linecap:round"></path><path d="M-65.01567761147972,18.488745940632036L0.6123836763174401,-5.443536122504006L0.6123836763174401,-72.17306984966828z" style="fill:rgb(238,238,238); fill-opacity: 0.26"></path><path d="M-36.0306547943652,-4.568517224772827L-36.0306547943652,1.317309902209204L-41.81932739319247,3.428238408824104z" style="fill:rgb(255,187,187); fill-opacity: 0.4"></path><path d="M-41.819327343476154,3.428238448452218L-36.030654744648885,1.3173099418373182L-36.03065474464889,-4.568517185144713z" style="fill:rgb(153,221,255); fill-opacity: 0.4"></path><path d="M-41.81932832321909,3.4282388144074263L-41.81932832321909,-2.45758831257461M-41.81932832321909,3.4282388144074263L-11.169393041301038,13.776327915076719M-41.819327343476154,-2.4575886785298158L-41.819327343476154,3.4282384484522184M-36.03065549437064,-4.568516903070278L-41.81932832321909,-2.45758831257461M-36.03065549437064,-4.568516903070278L-11.169393041301038,13.776327915076719M-36.030654744648885,-4.568517185144717L-41.819327343476154,-2.4575886785298158" style="fill:none;stroke:rgb(0,0,0);stroke-width:1;stroke-linecap:round"></path><path d="M-36.0306547943652,-4.568517224772827L-41.81932739319247,3.428238408824104L-41.81932739319247,-2.457588718157928z" style="fill:rgb(255,187,187); fill-opacity: 0.4"></path><path d="M-41.819327343476154,-2.457588678529814L-41.819327343476154,3.428238448452218L-36.03065474464889,-4.568517185144713z" style="fill:rgb(153,221,255); fill-opacity: 0.4"></path><path d="M-41.81932832321909,-2.45758831257461L-11.169393041301038,13.776327915076719M-101.20147929763044,-77.08393926251003L-65.0156776114797,-48.240787786532245" style="fill:none;stroke:rgb(0,0,0);stroke-width:1;stroke-linecap:round"></path><path d="M-101.20147929763043,-77.08393926251003L-101.20147929763043,-10.354405535345752L-65.01567761147972,-48.24078778653224zM-101.20147929763043,-10.354405535345752L-65.01567761147972,18.488745940632036L-65.01567761147972,-48.24078778653224z" style="fill:rgb(238,238,238); fill-opacity: 0.26"></path><path d="M-65.0156776114797,-48.240787786532245L-65.0156776114797,18.488745940632022" style="fill:none;stroke:rgb(0,0,0);stroke-width:1;stroke-linecap:round"></path><path d="M-101.20147929763043,-77.08393926251003L-65.01567761147972,-48.24078778653224L-35.57341800983328,-101.01622132564606z" style="fill:rgb(238,238,238); fill-opacity: 0.26"></path><path d="M-41.81932739319247,3.428238408824104L-36.0306547943652,1.317309902209204L-11.16939288616884,13.77632794254928zM-36.0306547943652,1.317309902209204L-36.0306547943652,-4.568517224772827L-11.16939288616884,13.77632794254928z" style="fill:rgb(255,187,187); fill-opacity: 0.4"></path><path d="M-65.01567761147972,-48.24078778653224L0.6123836763174401,-72.17306984966828L-35.57341800983328,-101.01622132564606z" style="fill:rgb(238,238,238); fill-opacity: 0.26"></path><path d="M-41.81932739319247,-2.457588718157928L-41.81932739319247,3.428238408824104L-11.16939288616884,13.77632794254928zM-36.0306547943652,-4.568517224772827L-41.81932739319247,-2.457588718157928L-11.16939288616884,13.77632794254928z" style="fill:rgb(255,187,187); fill-opacity: 0.4"></path><path d="M63.879231247499135,46.15508689913305L18.646977895144712,10.101146562056488M18.646977895144712,-40.22168296656969L18.646977895144712,10.101146562056488M18.646977895144712,10.101146562056488L-30.84519679894622,28.149229370762377M0.6123836763174437,-72.17306984966828L-65.0156776114797,-48.240787786532245" style="fill:none;stroke:rgb(0,0,0);stroke-width:1;stroke-linecap:round"></path><path d="M-65.01567761147972,-48.24078778653224L-65.01567761147972,18.488745940632036L0.6123836763174401,-72.17306984966828zM-30.845196798946212,28.149229370762377L18.646977895144715,10.101146562056488L63.87923124749913,46.155086899133046z" style="fill:rgb(238,238,238); fill-opacity: 0.26"></path><path d="M-30.84519679894622,-22.1736001578638L-30.84519679894622,28.149229370762377M-30.84519679894622,28.149229370762377L14.3870565534082,64.20316970783894" style="fill:none;stroke:rgb(0,0,0);stroke-width:1;stroke-linecap:round"></path><path d="M63.87923124749913,46.155086899133046L18.646977895144715,10.101146562056488L18.646977895144715,-40.22168296656969zM18.646977895144715,10.101146562056488L-30.845196798946212,28.149229370762377L-30.845196798946212,-22.1736001578638zM18.646977895144715,-40.22168296656969L18.646977895144715,10.101146562056488L-30.845196798946212,-22.1736001578638z" style="fill:rgb(238,238,238); fill-opacity: 0.26"></path><path d="M63.879231247499135,-4.167742629493124L18.646977895144712,-40.22168296656969M18.646977895144712,-40.22168296656969L-30.84519679894622,-22.1736001578638M31.321880780667925,18.83417366314765L-13.91037257168649,-17.219766673928913M-13.91037257168649,-23.105593800910952L-13.91037257168649,-17.219766673928913M-13.91037257168649,-17.219766673928913L-19.699045170513763,-15.108838167314012M-19.699045170513763,-20.99466529429605L-19.699045170513763,-15.108838167314012M-19.699045170513763,-15.108838167314012L25.53320818184066,20.945102169762553" style="fill:none;stroke:rgb(0,0,0);stroke-width:1;stroke-linecap:round"></path><path d="M-13.91037257168649,-17.219766673928916L-19.699045170513763,-15.108838167314014L-19.699045170513763,-20.99466529429605zM-13.91037257168649,-23.105593800910952L-13.91037257168649,-17.219766673928916L-19.699045170513763,-20.99466529429605z" style="fill:rgb(153,221,255); fill-opacity: 0.4"></path><path d="M31.321880780667925,12.948346536165616L-13.91037257168649,-23.105593800910952M-13.91037257168649,-23.105593800910952L-19.699045170513763,-20.99466529429605M-19.699045170513763,-20.99466529429605L25.53320818184066,15.059275042780516M63.879231247499135,-4.167742629493124L63.879231247499135,46.15508689913305M63.879231247499135,46.15508689913305L14.3870565534082,64.20316970783894" style="fill:none;stroke:rgb(0,0,0);stroke-width:1;stroke-linecap:round"></path><path d="M14.3870565534082,64.20316970783892L-30.845196798946212,28.149229370762377L63.87923124749913,46.155086899133046zM63.87923124749913,-4.167742629493127L63.87923124749913,46.155086899133046L18.646977895144715,-40.22168296656969z" style="fill:rgb(238,238,238); fill-opacity: 0.26"></path><path d="M-30.84519679894622,-22.1736001578638L14.3870565534082,13.880340179212764" style="fill:none;stroke:rgb(0,0,0);stroke-width:1;stroke-linecap:round"></path><path d="M-19.699045170513763,-15.108838167314014L-13.91037257168649,-17.219766673928916L31.321880780667925,18.834173663147645zM31.321880780667925,18.834173663147645L-13.91037257168649,-17.219766673928916L-13.91037257168649,-23.105593800910952zM-19.699045170513763,-20.99466529429605L-19.699045170513763,-15.108838167314014L25.53320818184066,15.059275042780516zM-19.699045170513763,-20.99466529429605L25.53320818184066,15.059275042780516L-13.91037257168649,-23.105593800910952z" style="fill:rgb(153,221,255); fill-opacity: 0.4"></path><path d="M-30.845196798946212,-22.1736001578638L-30.845196798946212,28.149229370762377L14.3870565534082,13.880340179212762zM-30.845196798946212,-22.1736001578638L14.3870565534082,13.880340179212762L18.646977895144715,-40.22168296656969zM14.3870565534082,64.20316970783892L63.87923124749913,46.155086899133046L63.87923124749913,-4.167742629493127zM-30.845196798946212,28.149229370762377L14.3870565534082,64.20316970783892L14.3870565534082,13.880340179212762zM14.3870565534082,13.880340179212762L63.87923124749913,-4.167742629493127L18.646977895144715,-40.22168296656969z" style="fill:rgb(238,238,238); fill-opacity: 0.26"></path><path d="M25.53320818184066,20.94510216976255L-19.699045170513763,-15.108838167314014L31.321880780667925,18.834173663147645zM31.321880780667925,12.948346536165614L31.321880780667925,18.834173663147645L-13.91037257168649,-23.105593800910952z" style="fill:rgb(153,221,255); fill-opacity: 0.4"></path><path d="M14.3870565534082,13.880340179212764L14.3870565534082,64.20316970783894" style="fill:none;stroke:rgb(0,0,0);stroke-width:1;stroke-linecap:round"></path><path d="M-19.699045170513763,-15.108838167314014L25.53320818184066,20.94510216976255L25.53320818184066,15.059275042780516zM25.53320818184066,15.059275042780516L31.321880780667925,12.948346536165614L-13.91037257168649,-23.105593800910952z" style="fill:rgb(153,221,255); fill-opacity: 0.4"></path><path d="M63.879231247499135,-4.167742629493124L14.3870565534082,13.880340179212764" style="fill:none;stroke:rgb(0,0,0);stroke-width:1;stroke-linecap:round"></path><path d="M14.3870565534082,13.880340179212762L14.3870565534082,64.20316970783892L63.87923124749913,-4.167742629493127z" style="fill:rgb(238,238,238); fill-opacity: 0.26"></path><path d="M31.321880780667925,12.948346536165616L31.321880780667925,18.83417366314765M31.321880780667925,18.83417366314765L25.53320818184066,20.945102169762553M31.32188035194856,12.948346621068685L31.32188035194857,18.83417374805072M31.32188035194857,18.83417374805072L25.5332077531213,20.945102254665624M31.32188035194857,18.83417374805072L59.449559137004215,43.75908982173587" style="fill:none;stroke:rgb(0,0,0);stroke-width:1;stroke-linecap:round"></path><path d="M31.321880096189524,12.948345990578309L31.321880096189524,18.83417311756034L25.53320749736226,20.945101624175244z" style="fill:rgb(255,187,187); fill-opacity: 0.4"></path><path d="M25.53320818184066,20.94510216976255L31.321880780667925,18.834173663147645L31.321880780667925,12.948346536165614z" style="fill:rgb(153,221,255); fill-opacity: 0.4"></path><path d="M132.8890563494598,102.81024270715895L78.61035630956576,59.545517477400914M78.61035630956576,32.34722088045888L78.61035630956576,59.545517477400914M78.61035630956576,59.545517477400914L51.86100896231809,69.30007845569641M25.53320818184066,15.059275042780516L25.53320818184066,20.945102169762553M25.5332077531213,20.945102254665624L25.5332077531213,15.059275127683588M25.5332077531213,20.945102254665624L59.449559137004215,43.75908982173587M31.321880780667925,12.948346536165616L25.53320818184066,15.059275042780516M31.32188035194856,12.948346621068685L25.5332077531213,15.059275127683588M31.32188035194856,12.948346621068685L59.449559137004215,43.75908982173587" style="fill:none;stroke:rgb(0,0,0);stroke-width:1;stroke-linecap:round"></path><path d="M31.321880096189524,12.948345990578309L25.53320749736226,20.945101624175244L25.53320749736226,15.059274497193211z" style="fill:rgb(255,187,187); fill-opacity: 0.4"></path><path d="M25.53320818184066,15.059275042780516L25.53320818184066,20.94510216976255L31.321880780667925,12.948346536165614z" style="fill:rgb(153,221,255); fill-opacity: 0.4"></path><path d="M25.5332077531213,15.059275127683588L59.449559137004215,43.75908982173587" style="fill:none;stroke:rgb(0,0,0);stroke-width:1;stroke-linecap:round"></path><path d="M25.53320749736226,20.945101624175244L31.321880096189524,18.83417311756034L59.4495586076851,43.759088746974435zM31.321880096189524,18.83417311756034L31.321880096189524,12.948345990578309L59.4495586076851,43.759088746974435zM25.53320749736226,15.059274497193211L25.53320749736226,20.945101624175244L59.4495586076851,43.759088746974435zM31.321880096189524,12.948345990578309L25.53320749736226,15.059274497193211L59.4495586076851,43.759088746974435z" style="fill:rgb(255,187,187); fill-opacity: 0.4"></path><path d="M51.86100896231809,42.10178185875438L51.86100896231809,69.30007845569641M51.86100896231809,69.30007845569641L106.13970900221214,112.56480368545445" style="fill:none;stroke:rgb(0,0,0);stroke-width:1;stroke-linecap:round"></path><path d="M78.61035630956577,59.545517477400914L51.861008962318074,69.30007845569641L51.861008962318074,42.10178185875438zM78.61035630956577,32.34722088045888L78.61035630956577,59.545517477400914L51.861008962318074,42.10178185875438z" style="fill:rgb(238,238,238); fill-opacity: 0.26"></path><path d="M132.8890563494598,75.6119461102169L78.61035630956576,32.34722088045888M78.61035630956576,32.34722088045888L51.86100896231809,42.10178185875438M114.00485615776773,96.43500779701364L59.7261561178737,53.170282567255605M59.7261561178737,47.284455440273575L59.7261561178737,53.170282567255605M59.7261561178737,53.170282567255605L53.937483519046424,55.28121107387051M53.937483519046424,49.39538394688847L53.937483519046424,55.28121107387051M53.937483519046424,55.28121107387051L108.21618355894047,98.54593630362855" style="fill:none;stroke:rgb(0,0,0);stroke-width:1;stroke-linecap:round"></path><path d="M59.726156117873686,53.170282567255605L53.937483519046424,55.28121107387051L53.937483519046424,49.39538394688847zM59.726156117873686,47.284455440273575L59.726156117873686,53.170282567255605L53.937483519046424,49.39538394688847z" style="fill:rgb(153,221,255); fill-opacity: 0.4"></path><path d="M114.00485615776773,90.54918067003159L59.7261561178737,47.284455440273575M59.7261561178737,47.284455440273575L53.937483519046424,49.39538394688847M53.937483519046424,49.39538394688847L108.21618355894047,92.6601091766465" style="fill:none;stroke:rgb(0,0,0);stroke-width:1;stroke-linecap:round"></path><path d="M51.861008962318074,69.30007845569641L78.61035630956577,59.545517477400914L132.88905634945982,102.81024270715896zM132.88905634945982,102.81024270715896L78.61035630956577,59.545517477400914L78.61035630956577,32.34722088045888z" style="fill:rgb(238,238,238); fill-opacity: 0.26"></path><path d="M51.86100896231809,42.10178185875438L106.13970900221214,85.3665070885124" style="fill:none;stroke:rgb(0,0,0);stroke-width:1;stroke-linecap:round"></path><path d="M53.937483519046424,55.28121107387051L59.726156117873686,53.170282567255605L114.00485615776773,96.43500779701364zM114.00485615776773,96.43500779701364L59.726156117873686,53.170282567255605L59.726156117873686,47.284455440273575zM53.937483519046424,49.39538394688847L53.937483519046424,55.28121107387051L108.21618355894049,92.66010917664651zM53.937483519046424,49.39538394688847L108.21618355894049,92.66010917664651L59.726156117873686,47.284455440273575z" style="fill:rgb(153,221,255); fill-opacity: 0.4"></path><path d="M51.861008962318074,42.10178185875438L51.861008962318074,69.30007845569641L106.13970900221213,85.3665070885124zM51.861008962318074,42.10178185875438L106.13970900221213,85.3665070885124L78.61035630956577,32.34722088045888zM106.13970900221213,112.56480368545446L51.861008962318074,69.30007845569641L132.88905634945982,102.81024270715896zM132.88905634945982,75.6119461102169L132.88905634945982,102.81024270715896L78.61035630956577,32.34722088045888zM51.861008962318074,69.30007845569641L106.13970900221213,112.56480368545446L106.13970900221213,85.3665070885124z" style="fill:rgb(238,238,238); fill-opacity: 0.26"></path><path d="M108.21618355894049,98.54593630362855L53.937483519046424,55.28121107387051L114.00485615776773,96.43500779701364zM114.00485615776773,90.5491806700316L114.00485615776773,96.43500779701364L59.726156117873686,47.284455440273575z" style="fill:rgb(153,221,255); fill-opacity: 0.4"></path><path d="M106.13970900221213,85.3665070885124L132.88905634945982,75.6119461102169L78.61035630956577,32.34722088045888z" style="fill:rgb(238,238,238); fill-opacity: 0.26"></path><path d="M132.8890563494598,75.6119461102169L132.8890563494598,102.81024270715895M132.8890563494598,102.81024270715895L106.13970900221214,112.56480368545445" style="fill:none;stroke:rgb(0,0,0);stroke-width:1;stroke-linecap:round"></path><path d="M53.937483519046424,55.28121107387051L108.21618355894049,98.54593630362855L108.21618355894049,92.66010917664651zM108.21618355894049,92.66010917664651L114.00485615776773,90.5491806700316L59.726156117873686,47.284455440273575z" style="fill:rgb(153,221,255); fill-opacity: 0.4"></path><path d="M106.13970900221213,112.56480368545446L132.88905634945982,102.81024270715896L132.88905634945982,75.6119461102169z" style="fill:rgb(238,238,238); fill-opacity: 0.26"></path><path d="M106.13970900221214,85.3665070885124L106.13970900221214,112.56480368545445M132.8890563494598,75.6119461102169L106.13970900221214,85.3665070885124M114.00485550865291,90.54918040038332L114.00485550865291,96.43500749813013M114.00485550865291,96.43500749813013L108.21618336986802,98.54593583698352M114.00485550865291,96.43500749813013L145.61692047081215,114.89431027707258M114.00485615776773,90.54918067003159L114.00485615776773,96.43500779701364M114.00485615776773,96.43500779701364L108.21618355894047,98.54593630362855" style="fill:none;stroke:rgb(0,0,0);stroke-width:1;stroke-linecap:round"></path><path d="M108.21618355894049,98.54593630362855L114.00485615776773,96.43500779701364L114.00485615776773,90.5491806700316z" style="fill:rgb(153,221,255); fill-opacity: 0.4"></path><path d="M114.00485732785927,90.54918160269375L114.00485732785927,96.43500872967579L108.21618472903204,98.54593723629068z" style="fill:rgb(255,187,187); fill-opacity: 0.4"></path><path d="M106.13970900221213,85.3665070885124L106.13970900221213,112.56480368545446L132.88905634945982,75.6119461102169z" style="fill:rgb(238,238,238); fill-opacity: 0.26"></path><path d="M108.21618336986802,98.54593583698352L108.21618336986802,92.66010873923669M108.21618336986802,98.54593583698352L145.61692047081215,114.89431027707258M108.21618355894047,92.6601091766465L108.21618355894047,98.54593630362855M114.00485550865291,90.54918040038332L108.21618336986802,92.66010873923669M114.00485550865291,90.54918040038332L145.61692047081215,114.89431027707258M114.00485615776773,90.54918067003159L108.21618355894047,92.6601091766465" style="fill:none;stroke:rgb(0,0,0);stroke-width:1;stroke-linecap:round"></path><path d="M108.21618355894049,92.66010917664651L108.21618355894049,98.54593630362855L114.00485615776773,90.5491806700316z" style="fill:rgb(153,221,255); fill-opacity: 0.4"></path><path d="M114.00485732785927,90.54918160269375L108.21618472903204,98.54593723629068L108.21618472903204,92.66011010930866z" style="fill:rgb(255,187,187); fill-opacity: 0.4"></path><path d="M108.21618336986802,92.66010873923669L145.61692047081215,114.89431027707258" style="fill:none;stroke:rgb(0,0,0);stroke-width:1;stroke-linecap:round"></path><path d="M108.21618472903204,98.54593723629068L114.00485732785927,96.43500872967579L145.6169220958026,114.89431157232772zM114.00485732785927,96.43500872967579L114.00485732785927,90.54918160269375L145.6169220958026,114.89431157232772zM108.21618472903204,92.66011010930866L108.21618472903204,98.54593723629068L145.6169220958026,114.89431157232772zM114.00485732785927,90.54918160269375L108.21618472903204,92.66011010930866L145.6169220958026,114.89431157232772z" style="fill:rgb(255,187,187); fill-opacity: 0.4"></path><path d="M200.8604020722594,158.7881875048091L146.58170203236537,115.52346227505106M146.58170203236537,113.56151989939038L146.58170203236537,115.52346227505106M146.58170203236537,115.52346227505106L144.65214449942295,116.22710511058938M144.65214449942295,114.26516273492868L144.65214449942295,116.22710511058938M144.65214449942295,116.22710511058938L198.93084453931698,159.4918303403474" style="fill:none;stroke:rgb(0,0,0);stroke-width:1;stroke-linecap:round"></path><path d="M146.58170203236537,115.52346227505109L144.65214449942295,116.22710511058938L144.65214449942295,114.26516273492868zM146.58170203236537,113.56151989939039L146.58170203236537,115.52346227505109L144.65214449942295,114.26516273492868z" style="fill:rgb(238,238,238); fill-opacity: 0.26"></path><path d="M200.8604020722594,156.8262451291484L146.58170203236537,113.56151989939038M146.58170203236537,113.56151989939038L144.65214449942295,114.26516273492868M144.65214449942295,114.26516273492868L198.93084453931698,157.5298879646867" style="fill:none;stroke:rgb(0,0,0);stroke-width:1;stroke-linecap:round"></path><path d="M144.65214449942295,116.22710511058938L146.58170203236537,115.52346227505109L200.8604020722594,158.78818750480912zM200.8604020722594,158.78818750480912L146.58170203236537,115.52346227505109L146.58170203236537,113.56151989939039zM144.65214449942295,114.26516273492868L144.65214449942295,116.22710511058938L198.93084453931698,157.5298879646867zM144.65214449942295,114.26516273492868L198.93084453931698,157.5298879646867L146.58170203236537,113.56151989939039zM198.93084453931698,159.4918303403474L144.65214449942295,116.22710511058938L200.8604020722594,158.78818750480912zM200.8604020722594,156.82624512914842L200.8604020722594,158.78818750480912L146.58170203236537,113.56151989939039zM144.65214449942295,116.22710511058938L198.93084453931698,159.4918303403474L198.93084453931698,157.5298879646867zM198.93084453931698,157.5298879646867L200.8604020722594,156.82624512914842L146.58170203236537,113.56151989939039z" style="fill:rgb(238,238,238); fill-opacity: 0.26"></path><path d="M200.8604020722594,156.8262451291484L200.8604020722594,158.7881875048091M200.8604020722594,158.7881875048091L198.93084453931698,159.4918303403474" style="fill:none;stroke:rgb(0,0,0);stroke-width:1;stroke-linecap:round"></path><path d="M198.93084453931698,159.4918303403474L200.8604020722594,158.78818750480912L200.8604020722594,156.82624512914842z" style="fill:rgb(238,238,238); fill-opacity: 0.26"></path><path d="M198.93084453931698,157.5298879646867L198.93084453931698,159.4918303403474M200.8604020722594,156.8262451291484L198.93084453931698,157.5298879646867" style="fill:none;stroke:rgb(0,0,0);stroke-width:1;stroke-linecap:round"></path><path d="M198.93084453931698,157.5298879646867L198.93084453931698,159.4918303403474L200.8604020722594,156.82624512914842z" style="fill:rgb(238,238,238); fill-opacity: 0.26"></path><path d="M205.72397658671323,162.8047293790917L220.51541492830913,174.5947596327953M246.2551751700151,228.13995897270271L237.2087247484774,220.92917110370823M237.2087247484774,139.3342850549902L237.2087247484774,220.92917110370823M237.2087247484774,220.92917110370823L223.83405107485356,225.80645159285598" style="fill:none;stroke:rgb(0,0,0);stroke-width:1;stroke-linecap:round"></path><path d="M223.83405107485356,225.80645159285598L237.20872474847738,220.92917110370823L246.2551751700151,228.1399589727027z" style="fill:rgb(238,238,238); fill-opacity: 0.26"></path><path d="M223.83405107485356,144.21156554413795L223.83405107485356,225.80645159285598M223.83405107485356,225.80645159285598L232.88050149639122,233.01723946185047M246.2551751700151,146.54507292398466L246.2551751700151,228.13995897270271M246.2551751700151,228.13995897270271L232.88050149639122,233.01723946185047" style="fill:none;stroke:rgb(0,0,0);stroke-width:1;stroke-linecap:round"></path><path d="M232.88050149639125,233.0172394618504L223.83405107485356,225.80645159285598L246.2551751700151,228.1399589727027z" style="fill:rgb(238,238,238); fill-opacity: 0.26"></path><path d="M232.88050149639122,151.4223534131324L232.88050149639122,233.01723946185047" style="fill:none;stroke:rgb(0,0,0);stroke-width:1;stroke-linecap:round"></path><path d="M215.92761915072163,177.78345381464007L220.51541492830916,179.499615571947L229.2162610116008,181.5300715467386z" style="fill:rgb(0,0,0)"></path><path d="M246.2551751700151,228.1399589727027L237.20872474847738,220.92917110370823L237.20872474847738,139.3342850549902zM237.20872474847738,220.92917110370823L223.83405107485356,225.80645159285598L223.83405107485356,144.21156554413795z" style="fill:rgb(238,238,238); fill-opacity: 0.26"></path><path d="M223.3508285415329,169.59267059338532L217.68000131508535,171.66062497222188L229.2162610116008,181.5300715467386zM217.68000131508535,171.66062497222188L215.92761915072163,177.78345381464007L229.2162610116008,181.5300715467386z" style="fill:rgb(0,0,0)"></path><path d="M232.88050149639125,233.0172394618504L246.2551751700151,228.1399589727027L246.2551751700151,146.54507292398463zM223.83405107485356,225.80645159285598L232.88050149639125,233.0172394618504L232.88050149639125,151.42235341313238zM237.20872474847738,139.3342850549902L237.20872474847738,220.92917110370823L223.83405107485356,144.21156554413795zM246.2551751700151,146.54507292398463L246.2551751700151,228.1399589727027L237.20872474847738,139.3342850549902z" style="fill:rgb(238,238,238); fill-opacity: 0.26"></path><path d="M240.8729652332678,190.821452970102L255.66440357486368,202.6114832238056" style="fill:none;stroke:rgb(0,0,0);stroke-width:1;stroke-linecap:round"></path><path d="M223.83405107485356,144.21156554413795L223.83405107485356,225.80645159285598L232.88050149639125,151.42235341313238zM232.88050149639125,151.42235341313238L232.88050149639125,233.0172394618504L246.2551751700151,146.54507292398463z" style="fill:rgb(238,238,238); fill-opacity: 0.26"></path><path d="M246.2551751700151,146.54507292398466L237.2087247484774,139.3342850549902M237.2087247484774,139.3342850549902L223.83405107485356,144.21156554413795M281.4041638165697,237.94693525504474L272.357713395032,230.7361473860503M272.357713395032,185.56075595466868L272.357713395032,230.7361473860503M272.357713395032,230.7361473860503L258.98303972140815,235.61342787519806M223.83405107485356,144.21156554413795L232.88050149639122,151.4223534131324" style="fill:none;stroke:rgb(0,0,0);stroke-width:1;stroke-linecap:round"></path><path d="M223.83405107485356,144.21156554413795L232.88050149639125,151.42235341313238L237.20872474847738,139.3342850549902zM258.98303972140815,235.61342787519803L272.35771339503196,230.73614738605028L281.4041638165697,237.94693525504474zM232.88050149639125,151.42235341313238L246.2551751700151,146.54507292398463L237.20872474847738,139.3342850549902z" style="fill:rgb(238,238,238); fill-opacity: 0.26"></path><path d="M258.98303972140815,190.43803644381643L258.98303972140815,235.61342787519806M258.98303972140815,235.61342787519806L268.02949014294586,242.82421574419246M246.2551751700151,146.54507292398466L232.88050149639122,151.4223534131324" style="fill:none;stroke:rgb(0,0,0);stroke-width:1;stroke-linecap:round"></path><path d="M251.0766077972762,205.80017740565035L255.6644035748637,207.51633916295728L264.3652496581554,209.5467951377489zM258.49981718808755,197.6093941843956L252.8289899616399,199.67734856323216L264.3652496581554,209.5467951377489z" style="fill:rgb(0,0,0)"></path><path d="M281.4041638165697,192.77154382366314L281.4041638165697,237.94693525504474M281.4041638165697,237.94693525504474L268.02949014294586,242.82421574419246" style="fill:none;stroke:rgb(0,0,0);stroke-width:1;stroke-linecap:round"></path><path d="M252.8289899616399,199.67734856323216L251.0766077972762,205.80017740565035L264.3652496581554,209.5467951377489z" style="fill:rgb(0,0,0)"></path><path d="M268.02949014294586,242.82421574419246L258.98303972140815,235.61342787519803L281.4041638165697,237.94693525504474zM281.4041638165697,237.94693525504474L272.35771339503196,230.73614738605028L272.35771339503196,185.56075595466868zM272.35771339503196,230.73614738605028L258.98303972140815,235.61342787519803L258.98303972140815,190.43803644381643z" style="fill:rgb(238,238,238); fill-opacity: 0.26"></path><path d="M268.02949014294586,197.64882431281086L268.02949014294586,242.82421574419246" style="fill:none;stroke:rgb(0,0,0);stroke-width:1;stroke-linecap:round"></path><path d="M272.35771339503196,185.56075595466868L272.35771339503196,230.73614738605028L258.98303972140815,190.43803644381643zM268.02949014294586,242.82421574419246L281.4041638165697,237.94693525504474L281.4041638165697,192.77154382366317zM258.98303972140815,235.61342787519803L268.02949014294586,242.82421574419246L268.02949014294586,197.64882431281092zM281.4041638165697,192.77154382366317L281.4041638165697,237.94693525504474L272.35771339503196,185.56075595466868z" style="fill:rgb(238,238,238); fill-opacity: 0.26"></path><path d="M281.4041638165697,192.77154382366314L272.357713395032,185.56075595466868M272.357713395032,185.56075595466868L258.98303972140815,190.43803644381643" style="fill:none;stroke:rgb(0,0,0);stroke-width:1;stroke-linecap:round"></path><path d="M258.98303972140815,190.43803644381643L258.98303972140815,235.61342787519803L268.02949014294586,197.64882431281092zM268.02949014294586,197.64882431281092L268.02949014294586,242.82421574419246L281.4041638165697,192.77154382366317z" style="fill:rgb(238,238,238); fill-opacity: 0.26"></path><path d="M258.98303972140815,190.43803644381643L268.02949014294586,197.64882431281086" style="fill:none;stroke:rgb(0,0,0);stroke-width:1;stroke-linecap:round"></path><path d="M258.98303972140815,190.43803644381643L268.02949014294586,197.64882431281092L272.35771339503196,185.56075595466868zM268.02949014294586,197.64882431281092L281.4041638165697,192.77154382366317L272.35771339503196,185.56075595466868z" style="fill:rgb(238,238,238); fill-opacity: 0.26"></path><path d="M281.4041638165697,192.77154382366314L268.02949014294586,197.64882431281086" style="fill:none;stroke:rgb(0,0,0);stroke-width:1;stroke-linecap:round"></path></svg>